<?xml version="1.0" encoding="UTF-8"?>
<svg width="1859px" height="773px" viewBox="0 0 1859 773" version="1.1" xmlns="http://www.w3.org/2000/svg" xmlns:xlink="http://www.w3.org/1999/xlink">
    <!-- Generator: Sketch 51.2 (57519) - http://www.bohemiancoding.com/sketch -->
    <title>Group 20</title>
    <desc>Created with Sketch.</desc>
    <defs>
        <linearGradient x1="50%" y1="8.48349694%" x2="50%" y2="100%" id="linearGradient-1">
            <stop stop-color="#2859B7" offset="0%"></stop>
            <stop stop-color="#0D009B" offset="100%"></stop>
        </linearGradient>
        <linearGradient x1="50%" y1="0%" x2="50%" y2="100%" id="linearGradient-2">
            <stop stop-color="#001DF2" offset="0%"></stop>
            <stop stop-color="#1B1A45" offset="100%"></stop>
        </linearGradient>
        <linearGradient x1="50%" y1="26.418457%" x2="50%" y2="100%" id="linearGradient-3">
            <stop stop-color="#0026AF" offset="0%"></stop>
            <stop stop-color="#205299" offset="100%"></stop>
        </linearGradient>
        <linearGradient x1="50%" y1="-2.48949813e-15%" x2="50%" y2="100%" id="linearGradient-4">
            <stop stop-color="#AAF2FF" offset="0%"></stop>
            <stop stop-color="#3F47FF" offset="100%"></stop>
        </linearGradient>
    </defs>
    <g id="Page-1" stroke="none" stroke-width="1" fill="none" fill-rule="evenodd">
        <g id="Artboard-10" transform="translate(-52.000000, -160.000000)">
            <g id="Group-20" transform="translate(52.000000, 160.000000)">
                <circle id="Oval-16" fill="#FCFFD0" cx="631.5" cy="226.5" r="2.5"></circle>
                <circle id="Oval-16" fill="#FCFFD0" cx="1145" cy="289" r="2"></circle>
                <circle id="Oval-16" fill="#FCFFD0" cx="415" cy="613" r="1"></circle>
                <circle id="Oval-16" fill="#FCFFD0" cx="1184.5" cy="709.5" r="2.5"></circle>
                <circle id="Oval-16" fill="#FCFFD0" cx="759" cy="152" r="1"></circle>
                <circle id="Oval-16" fill="#FCFFD0" cx="898" cy="703" r="1"></circle>
                <circle id="Oval-16" fill="#FCFFD0" cx="292" cy="623" r="2"></circle>
                <circle id="Oval-16" fill="#FCFFD0" cx="1523.5" cy="294.5" r="1.5"></circle>
                <circle id="Oval-16" stroke="#979797" fill="#FCFFD0" cx="681.5" cy="605.5" r="1.5"></circle>
                <circle id="Oval-16" fill="#FCFFD0" cx="416" cy="166" r="2"></circle>
                <circle id="Oval-16" fill="#FCFFD0" cx="1544.5" cy="163.5" r="2.5"></circle>
                <circle id="Oval-16" fill="#FCFFD0" cx="631" cy="226" r="2"></circle>
                <circle id="Oval-16" fill="#FCFFD0" cx="1251" cy="204" r="1"></circle>
                <path d="M420,686 C420,686 499.666667,686 659,686 C658.003277,680.262238 654.870718,676.676136 649.602324,675.241696 C644.333929,673.807255 640.489425,674.524475 638.068811,677.393357 C636.644921,672.946591 633.227584,670.005988 627.816801,668.571547 C619.700626,666.419886 615.856122,669.862544 615.856122,669.862544 C611.726839,663.694449 606.102472,660.610402 598.983021,660.610402 C598.983021,641.245454 590.510873,629.052709 573.566577,624.032167 C546.655049,615.64069 526.791778,635.005638 526.791778,649.852098 C526.791778,649.852098 514.617516,633.714641 491.550492,643.612281 C481.44087,648.632823 476.386059,657.382911 476.386059,669.862544 C471.402443,667.710883 466.347632,668.141215 461.221626,671.15354 C456.095621,674.165865 453.603813,677.465079 453.746202,681.05118 C437.941019,678.612631 426.692285,680.262238 420,686 Z" id="Path-18" fill="url(#linearGradient-1)" transform="translate(539.500000, 654.000000) scale(-1, 1) translate(-539.500000, -654.000000) "></path>
                <path d="M0,484 C0,484 191.666667,484 575,484 C572.602026,470.283162 565.065535,461.710138 552.390527,458.280929 C539.71552,454.851719 530.46619,456.566324 524.642538,463.424743 C521.21686,452.794194 512.995234,445.764314 499.977659,442.335105 C480.451296,437.19129 471.201966,445.421393 471.201966,445.421393 C461.267501,430.675792 447.736074,423.302992 430.607685,423.302992 C430.607685,377.008664 410.224903,347.860383 369.459339,335.85815 C304.71403,315.797274 256.925827,362.091602 256.925827,397.583921 C256.925827,397.583921 227.636282,359.005314 172.140304,382.666859 C147.817992,394.669093 135.656836,415.587271 135.656836,445.421393 C123.666965,440.277579 111.505809,441.306342 99.1733691,448.507682 C86.8409294,455.709022 80.8459934,463.596204 81.1885612,472.169227 C43.1635389,466.339571 16.1006851,470.283162 0,484 Z" id="Path-18" fill="url(#linearGradient-2)" opacity="0.509877232"></path>
                <path d="M939,166 C939,166 1125.66667,166 1499,166 C1496.66458,152.641772 1489.32469,144.29288 1476.98034,140.953323 C1464.63598,137.613766 1455.62794,139.283544 1449.95621,145.962658 C1446.6199,135.610032 1438.61275,128.76394 1425.93476,125.424383 C1406.91778,120.415048 1397.90974,128.429984 1397.90974,128.429984 C1388.23444,114.069889 1375.056,106.889842 1358.37444,106.889842 C1358.37444,61.8058229 1338.52338,33.4195888 1298.82127,21.7311394 C1235.76497,2.19473121 1189.22341,47.2787501 1189.22341,81.8431647 C1189.22341,81.8431647 1160.69794,44.2731489 1106.64969,67.3160919 C1082.96187,79.0045412 1071.11796,99.3758387 1071.11796,128.429984 C1059.44087,123.420649 1047.59696,124.422516 1035.58624,131.435585 C1023.57551,138.448655 1017.73697,146.129636 1018.0706,154.478528 C981.037534,148.801282 954.680667,152.641772 939,166 Z" id="Path-18" fill="url(#linearGradient-1)"></path>
                <path d="M1278,773 C1278,773 1471.66667,773 1859,773 C1856.577,759.193509 1848.96187,750.564453 1836.1546,747.11283 C1823.34733,743.661208 1814.00149,745.387019 1808.11707,752.290264 C1804.65564,741.590234 1796.34823,734.514408 1783.19482,731.062785 C1763.4647,725.885351 1754.11886,734.169245 1754.11886,734.169245 C1744.08073,719.327268 1730.4081,711.906279 1713.10098,711.906279 C1713.10098,665.309374 1692.50551,635.970582 1651.31457,623.889902 C1585.89366,603.69791 1537.60679,650.294816 1537.60679,686.01911 C1537.60679,686.01911 1508.01162,647.188355 1451.93655,671.004551 C1427.36044,683.085231 1415.07239,704.140129 1415.07239,734.169245 C1402.9574,728.991811 1390.66935,730.027298 1378.20822,737.275706 C1365.7471,744.524113 1359.6896,752.462845 1360.03575,761.091902 C1321.61394,755.224143 1294.26869,759.193509 1278,773 Z" id="Path-18" fill="url(#linearGradient-3)" opacity="0.684207589"></path>
                <path d="M1362,46 C1362,46 1419.66667,46 1535,46 C1534.27852,41.8759834 1532.01102,39.2984729 1528.1975,38.2674688 C1524.38397,37.2364646 1521.60113,37.7519667 1519.84897,39.813975 C1519.48475,36.569798 1517.34434,34.4322073 1513.42775,33.4012032 C1507.55286,31.8546969 1503.77033,34.4012032 1503.77033,34.4012032 C1502.59698,29.3012186 1498.52579,27.0845597 1491.55675,27.7512263 C1491.55675,13.8326702 1485.42419,5.06913479 1473.15907,1.46062022 C1453.67918,-4.57075412 1439.30116,9.34780206 1439.30116,20.0186951 C1439.30116,20.0186951 1430.48883,8.41989831 1413.79178,15.533827 C1406.47394,19.1423416 1402.81501,25.431467 1402.81501,34.4012032 C1399.20763,32.8546969 1395.5487,33.1639982 1391.83825,35.3291069 C1388.12779,37.4942157 1386.3241,39.8655252 1386.42717,42.4430356 C1374.9866,40.6903286 1366.84421,41.8759834 1362,46 Z" id="Path-18" fill="url(#linearGradient-4)" transform="translate(1448.500000, 23.000000) scale(-1, 1) translate(-1448.500000, -23.000000) "></path>
                <path d="M114,228 C114,228 207.333333,228 394,228 C392.832291,221.365712 389.162347,217.219283 382.99017,215.560711 C376.817992,213.902139 372.313971,214.731425 369.478105,218.048569 C368.88861,212.829675 365.424366,209.390942 359.085373,207.73237 C349.576883,205.244512 343.45487,209.341066 343.45487,209.341066 C341.555808,201.136743 334.966591,197.570813 323.687221,198.643277 C323.687221,176.252556 313.761692,162.154695 293.910634,156.349693 C262.382484,146.647048 239.111707,169.037769 239.111707,186.203988 C239.111707,186.203988 224.848972,167.545054 197.824844,178.9892 C185.980935,184.794202 180.058981,194.91149 180.058981,209.341066 C174.220435,206.853208 168.298481,207.35078 162.293119,210.833781 C156.287757,214.316782 153.368484,218.131497 153.535299,222.277927 C135.018767,219.458355 121.840334,221.365712 114,228 Z" id="Path-18" fill="url(#linearGradient-4)" transform="translate(254.000000, 191.000000) scale(-1, 1) translate(-254.000000, -191.000000) "></path>
            </g>
        </g>
    </g>
</svg>